<?xml version="1.0" encoding="UTF-8" standalone="no"?>
<svg width="21px" height="21px" viewBox="0 0 21 21" version="1.1" xmlns="http://www.w3.org/2000/svg" xmlns:xlink="http://www.w3.org/1999/xlink">
    <!-- Generator: Sketch 43.2 (39069) - http://www.bohemiancoding.com/sketch -->
    <title>icon-calendar</title>
    <desc>Created with Sketch.</desc>
    <defs></defs>
    <g id="Page-1" stroke="none" stroke-width="1" fill-rule="evenodd">
        <g id="icon-calendar">
            <path d="M18.6,1.7 L17.8,1.7 C17.8,0.8 17.1,0.1 16.2,0.1 C15.3,0.1 14.6,0.8 14.6,1.7 L6.5,1.7 C6.5,0.8 5.8,0.1 4.9,0.1 C4,0.1 3.2,0.8 3.2,1.7 L2.4,1.7 C1.1,1.7 0,2.8 0,4.1 L0,17.8 C0,19.1 1.1,20.2 2.4,20.2 L18.6,20.2 C19.9,20.2 21,19.1 21,17.8 L21,4.1 C21,2.8 19.9,1.7 18.6,1.7 Z M2.8,4.5 C2.8,4 3,3.6 3.2,3.3 C3.2,4.2 3.9,4.9 4.8,4.9 C5.7,4.9 6.4,4.2 6.4,3.3 C6.7,3.6 6.8,4 6.8,4.5 C6.8,5.6 5.9,6.5 4.8,6.5 C3.7,6.6 2.8,5.7 2.8,4.5 Z M10.9,16.4 L5,16.4 L5,15 L7.6,12.8 C8.6,12.1 9,11.6 9,11 C9,10.3 8.6,10 7.9,10 C7.3,10 6.9,10.3 6.3,11.1 L5.1,10.1 C5.9,9 6.6,8.5 8.1,8.5 C9.8,8.5 10.8,9.5 10.8,11 C10.8,12.3 10.1,13 8.7,14.1 L7.4,15.1 L10.9,15.1 L10.9,16.4 L10.9,16.4 Z M15.2,16.4 L13.5,16.4 L13.5,10.2 L12.1,10.5 L11.7,9.1 L14,8.5 L15.2,8.5 L15.2,16.4 Z M16.2,6.6 C15.1,6.6 14.2,5.7 14.2,4.6 C14.2,4.1 14.4,3.7 14.6,3.4 C14.6,4.3 15.3,5 16.2,5 C17.1,5 17.8,4.3 17.8,3.4 C18.1,3.7 18.2,4.1 18.2,4.6 C18.2,5.7 17.3,6.6 16.2,6.6 Z" id="Shape"></path>
        </g>
    </g>
</svg>
