<?xml version="1.0" encoding="UTF-8" standalone="no"?>
<svg width="24px" height="24px" viewBox="0 0 24 24" version="1.1" xmlns="http://www.w3.org/2000/svg" xmlns:xlink="http://www.w3.org/1999/xlink">
    <!-- Generator: Sketch 49.3 (51167) - http://www.bohemiancoding.com/sketch -->
    <title>calendar-2</title>
    <desc>Created with Sketch.</desc>
    <defs></defs>
    <g id="calendar-2" stroke="none" stroke-width="1" fill="none" fill-rule="evenodd">
        <path d="M8,4 L16,4 L16,7 L19,7 L19,4 L23,4 L23,23 L1,23 L1,4 L5,4 L5,7 L8,7 L8,4 Z M4,9 L4,20 L20,20 L20,9 L4,9 Z M16,1 L19,1 L19,4 L16,4 L16,1 Z M5,1 L8,1 L8,4 L5,4 L5,1 Z M14.3239437,17.1126761 C15.3948169,17.1126761 15.8868732,16.6615211 15.8868732,15.9950141 C15.8868732,15.3520563 15.4821972,15.0186479 14.7685915,15.0186479 C14.065831,15.0186479 13.6221127,15.1971268 13.2053521,15.4949014 L11.5352113,14.943662 L11.5352113,10.2957746 L17.7323944,10.2957746 L17.7323944,11.8450704 L13.3943662,11.8450704 L13.3943662,13.7042254 C13.9366197,13.478338 14.3205352,13.1811831 15.1534366,13.1811831 C16.9506197,13.1811831 18.1017465,14.0785352 18.1017465,15.9352113 C18.1017465,17.8752394 16.7265915,18.9702817 14.3580282,18.9702817 C12.9178028,18.9702817 11.9392676,18.3518028 10.915493,17.7323944 L11.8450704,16.1830986 C12.6420282,16.6587324 13.4312394,17.1126761 14.3239437,17.1126761 Z M7.1971831,18.6619718 L7.1971831,12.7746479 L5.95774648,12.7746479 L5.95774648,11.5547324 C7.1971831,11.4946197 7.61673239,11.2253521 7.85532394,10.2957746 L9.36619718,10.2957746 L9.36619718,18.6619718 L7.1971831,18.6619718 Z" id="Combined-Shape" fill="#000000"></path>
    </g>
</svg>