<?xml version="1.0" encoding="UTF-8" standalone="no"?>
<svg width="18px" height="22px" viewBox="0 0 18 22" version="1.1" xmlns="http://www.w3.org/2000/svg" xmlns:xlink="http://www.w3.org/1999/xlink">
    <!-- Generator: Sketch 43.2 (39069) - http://www.bohemiancoding.com/sketch -->
    <title>icon-compass</title>
    <desc>Created with Sketch.</desc>
    <defs></defs>
    <g id="Page-1" stroke="none" stroke-width="1" fill-rule="evenodd">
        <g id="icon-compass">
            <path d="M9.4,3.3 L9.4,2.9 C10,2.7 10.5,2.2 10.5,1.5 C10.5,0.7 9.9,0.1 9.1,0.1 C8.3,0.1 7.7,0.7 7.7,1.5 C7.7,2.2 8.2,2.7 8.8,2.9 L8.8,3.3 C3.8,3.5 0,7.5 0,12.3 C0,17.3 4,21.3 9,21.3 C14,21.3 18,17.3 18,12.3 C18,7.5 14.1,3.5 9.4,3.3 L9.4,3.3 Z M8.3,1.5 C8.3,1.1 8.6,0.8 9,0.8 C9.4,0.8 9.7,1.1 9.7,1.5 C9.7,1.9 9.4,2.2 9,2.2 C8.6,2.2 8.3,1.9 8.3,1.5 L8.3,1.5 Z M4.6,17.2 L4.4,17.2 C4.3,17.2 4.2,17.2 4.1,17.1 C4,17 4,16.9 4.1,16.7 L7,10.9 L10.4,14.3 L4.6,17.2 Z M13.9,7.9 L11,13.8 L7.6,10.4 L13.5,7.5 C13.6,7.4 13.8,7.5 13.9,7.6 C13.9,7.6 14,7.7 13.9,7.9 L13.9,7.9 Z" id="Shape"></path>
        </g>
    </g>
</svg>
