<?xml version="1.0" encoding="UTF-8" standalone="no"?>
<svg width="24px" height="24px" viewBox="0 0 24 24" version="1.1" xmlns="http://www.w3.org/2000/svg" xmlns:xlink="http://www.w3.org/1999/xlink">
    <!-- Generator: Sketch 49.3 (51167) - http://www.bohemiancoding.com/sketch -->
    <title>facebook </title>
    <desc>Created with Sketch.</desc>
    <defs></defs>
    <g id="facebook" stroke="none" stroke-width="1" fill="none" fill-rule="evenodd">
        <path d="M22.6754292,0 L1.3245708,0 C0.592954506,0 0,0.592952285 0,1.32456584 L0,22.6753442 C0,23.4068679 0.592954506,24 1.3245708,24 L12.8192016,24 L12.8192016,14.7059181 L9.69148801,14.7059181 L9.69148801,11.0838195 L12.8192016,11.0838195 L12.8192016,8.41265666 C12.8192016,5.31283089 14.7124476,3.62488619 17.4777702,3.62488619 C18.8024309,3.62488619 19.9408604,3.7234418 20.2725876,3.76750407 L20.2725876,7.0070702 L18.3547026,7.00796943 C16.8508247,7.00796943 16.559563,7.72258753 16.559563,8.7712696 L16.559563,11.0838195 L20.1463352,11.0838195 L19.6793633,14.7059181 L16.559563,14.7059181 L16.559563,24 L22.6754292,24 C23.4069556,24 24,23.4068679 24,22.6753442 L24,1.32456584 C24,0.592952285 23.4069556,0 22.6754292,0" id="Fill-1" fill="#000000"></path>
    </g>
</svg>