<?xml version="1.0" encoding="UTF-8"?>
<svg width="24px" height="24px" viewBox="0 0 24 24" version="1.1" xmlns="http://www.w3.org/2000/svg" xmlns:xlink="http://www.w3.org/1999/xlink">
    <!-- Generator: Sketch 51.3 (57544) - http://www.bohemiancoding.com/sketch -->
    <title>images</title>
    <desc>Created with Sketch.</desc>
    <defs></defs>
    <g id="images" stroke="none" stroke-width="1" fill="none" fill-rule="evenodd">
        <path d="M20,13 L20,17 L16,17 L16,21 L0,21 L0,19 L14,19 L14,12 L2,12 L2,19 L0,19 L0,10 L4,10 L4,6 L8,6 L8,2 L24,2 L24,13 L20,13 Z M20,11 L22,11 L22,4 L10,4 L10,6 L20,6 L20,11 Z M6,10 L16,10 L16,15 L18,15 L18,8 L6,8 L6,10 Z" id="Combined-Shape" fill="#000000" fill-rule="nonzero"></path>
    </g>
</svg>