<?xml version="1.0" encoding="UTF-8"?>
<svg width="24px" height="24px" viewBox="0 0 24 24" version="1.1" xmlns="http://www.w3.org/2000/svg" xmlns:xlink="http://www.w3.org/1999/xlink">
    <!-- Generator: Sketch 54.1 (76490) - https://sketchapp.com -->
    <title>info</title>
    <desc>Created with Sketch.</desc>
    <g id="info" stroke="none" stroke-width="1" fill="none" fill-rule="evenodd">
        <path d="M12,24 C5.372583,24 0,18.627417 0,12 C0,5.372583 5.372583,0 12,0 C18.627417,0 24,5.372583 24,12 C24,18.627417 18.627417,24 12,24 Z M14.514,6.552 C14.514,5.706 13.938,5.202 13.146,5.202 C12.03,5.202 11.4,6.12 11.4,6.93 C11.4,7.758 11.994,8.262 12.768,8.262 C13.884,8.262 14.514,7.344 14.514,6.552 Z M13.452,11.088 C13.452,10.062 12.732,9.378 11.724,9.378 C10.32,9.378 9.312,10.494 8.484,12.438 L9.42,12.798 C9.906,11.718 10.32,11.016 10.716,11.016 C10.86,11.016 10.968,11.088 10.968,11.358 C10.968,12.276 9.474,14.922 9.474,16.398 C9.474,17.514 10.248,18.18 11.328,18.18 C12.606,18.18 13.686,17.226 14.388,15.318 L13.452,14.994 C12.93,16.2 12.588,16.506 12.3,16.506 C12.12,16.506 11.976,16.416 11.976,16.146 C11.976,15.21 13.452,12.546 13.452,11.088 Z" id="Combined-Shape" fill="#000000"></path>
    </g>
</svg>