<?xml version="1.0" encoding="UTF-8" standalone="no"?>
<svg width="24px" height="24px" viewBox="0 0 24 24" version="1.1" xmlns="http://www.w3.org/2000/svg" xmlns:xlink="http://www.w3.org/1999/xlink">
    <!-- Generator: Sketch 49.3 (51167) - http://www.bohemiancoding.com/sketch -->
    <title>instagram</title>
    <desc>Created with Sketch.</desc>
    <defs></defs>
    <g id="instagram" stroke="none" stroke-width="1" fill="none" fill-rule="evenodd">
        <g id="Group" fill="#000000">
            <path d="M18.4056,4.1544 C17.61,4.1544 16.9656,4.7988 16.9656,5.5944 C16.9656,6.39 17.61,7.0344 18.4056,7.0344 C19.2012,7.0344 19.8456,6.39 19.8456,5.5944 C19.8456,4.7988 19.2012,4.1544 18.4056,4.1544" id="Fill-1"></path>
            <path d="M21.76788,16.84908 C21.71508,18.01908 21.51948,18.65388 21.35508,19.07748 C21.13668,19.63788 20.87748,20.03748 20.45748,20.45748 C20.03748,20.87748 19.63788,21.13668 19.07748,21.35508 C18.65388,21.51948 18.01908,21.71508 16.84908,21.76788 C15.58428,21.82548 15.20388,21.83748 11.99988,21.83748 C8.79588,21.83748 8.41668,21.82548 7.15068,21.76788 C5.98068,21.71508 5.34588,21.51948 4.92228,21.35508 C4.36308,21.13668 3.96228,20.87748 3.54348,20.45748 C3.12348,20.03748 2.86308,19.63788 2.64588,19.07748 C2.48148,18.65388 2.28588,18.01908 2.23188,16.84908 C2.17428,15.58308 2.16228,15.20388 2.16228,11.99988 C2.16228,8.79588 2.17428,8.41668 2.23188,7.15068 C2.28588,5.98068 2.48148,5.34588 2.64588,4.92228 C2.86308,4.36308 3.12348,3.96348 3.54348,3.54348 C3.96228,3.12348 4.36308,2.86308 4.92228,2.64588 C5.34588,2.48148 5.98068,2.28588 7.15068,2.23188 C8.41668,2.17428 8.79588,2.16228 11.99988,2.16228 C15.20388,2.16228 15.58308,2.17428 16.84908,2.23188 C18.01908,2.28588 18.65388,2.48148 19.07748,2.64588 C19.63788,2.86308 20.03748,3.12348 20.45748,3.54348 C20.87748,3.96348 21.13668,4.36308 21.35508,4.92228 C21.51948,5.34588 21.71508,5.98068 21.76788,7.15068 C21.82548,8.41668 21.83748,8.79588 21.83748,11.99988 C21.83748,15.20388 21.82548,15.58308 21.76788,16.84908 M23.92788,7.05228 C23.86908,5.77548 23.66628,4.90308 23.36988,4.13988 C23.06388,3.35028 22.65348,2.68068 21.98628,2.01468 C21.31908,1.34748 20.64948,0.93708 19.86108,0.62988 C19.09668,0.33348 18.22428,0.13068 16.94748,0.07188 C15.66828,0.01428 15.25908,-0.00012 11.99988,-0.00012 C8.74068,-0.00012 8.33268,0.01428 7.05228,0.07188 C5.77548,0.13068 4.90308,0.33348 4.13988,0.62988 C3.35028,0.93708 2.68068,1.34748 2.01468,2.01468 C1.34748,2.68068 0.93708,3.35028 0.62988,4.13988 C0.33348,4.90308 0.13068,5.77548 0.07188,7.05228 C0.01428,8.33268 -0.00012,8.74068 -0.00012,11.99988 C-0.00012,15.25908 0.01428,15.66828 0.07188,16.94748 C0.13068,18.22548 0.33348,19.09668 0.62988,19.86108 C0.93708,20.64948 1.34748,21.31908 2.01468,21.98628 C2.68068,22.65348 3.35028,23.06388 4.13988,23.36988 C4.90308,23.66628 5.77548,23.86908 7.05228,23.92788 C8.33268,23.98668 8.74068,23.99988 11.99988,23.99988 C15.25908,23.99988 15.66828,23.98668 16.94748,23.92788 C18.22428,23.86908 19.09668,23.66628 19.86108,23.36988 C20.64948,23.06388 21.31908,22.65348 21.98628,21.98628 C22.65348,21.31908 23.06388,20.64948 23.36988,19.86108 C23.66628,19.09668 23.86908,18.22548 23.92788,16.94748 C23.98668,15.66828 23.99988,15.25908 23.99988,11.99988 C23.99988,8.74068 23.98668,8.33268 23.92788,7.05228" id="Fill-3"></path>
            <path d="M12,16.00008 C9.7908,16.00008 8.0004,14.20968 8.0004,12.00048 C8.0004,9.79128 9.7908,7.99968 12,7.99968 C14.2092,7.99968 15.9996,9.79128 15.9996,12.00048 C15.9996,14.20968 14.2092,16.00008 12,16.00008 M12,5.83728 C8.5968,5.83728 5.838,8.59728 5.838,12.00048 C5.838,15.40368 8.5968,18.16248 12,18.16248 C15.4032,18.16248 18.162,15.40368 18.162,12.00048 C18.162,8.59728 15.4032,5.83728 12,5.83728" id="Fill-6"></path>
        </g>
    </g>
</svg>