<?xml version="1.0" encoding="UTF-8" standalone="no"?>
<svg width="32px" height="32px" viewBox="0 0 32 32" version="1.1" xmlns="http://www.w3.org/2000/svg" xmlns:xlink="http://www.w3.org/1999/xlink">
    <!-- Generator: Sketch 48.2 (47327) - http://www.bohemiancoding.com/sketch -->
    <title>icon-instagram</title>
    <desc>Created with Sketch.</desc>
    <defs></defs>
    <g id="social-icons" stroke="none" stroke-width="1" fill="none" fill-rule="evenodd">
        <g id="icon-instagram" fill="#000000">
            <g id="Group">
                <path d="M24.5408,5.5392 C23.48,5.5392 22.6208,6.3984 22.6208,7.4592 C22.6208,8.52 23.48,9.3792 24.5408,9.3792 C25.6016,9.3792 26.4608,8.52 26.4608,7.4592 C26.4608,6.3984 25.6016,5.5392 24.5408,5.5392" id="Fill-1"></path>
                <path d="M29.02384,22.46544 C28.95344,24.02544 28.69264,24.87184 28.47344,25.43664 C28.18224,26.18384 27.83664,26.71664 27.27664,27.27664 C26.71664,27.83664 26.18384,28.18224 25.43664,28.47344 C24.87184,28.69264 24.02544,28.95344 22.46544,29.02384 C20.77904,29.10064 20.27184,29.11664 15.99984,29.11664 C11.72784,29.11664 11.22224,29.10064 9.53424,29.02384 C7.97424,28.95344 7.12784,28.69264 6.56304,28.47344 C5.81744,28.18224 5.28304,27.83664 4.72464,27.27664 C4.16464,26.71664 3.81744,26.18384 3.52784,25.43664 C3.30864,24.87184 3.04784,24.02544 2.97584,22.46544 C2.89904,20.77744 2.88304,20.27184 2.88304,15.99984 C2.88304,11.72784 2.89904,11.22224 2.97584,9.53424 C3.04784,7.97424 3.30864,7.12784 3.52784,6.56304 C3.81744,5.81744 4.16464,5.28464 4.72464,4.72464 C5.28304,4.16464 5.81744,3.81744 6.56304,3.52784 C7.12784,3.30864 7.97424,3.04784 9.53424,2.97584 C11.22224,2.89904 11.72784,2.88304 15.99984,2.88304 C20.27184,2.88304 20.77744,2.89904 22.46544,2.97584 C24.02544,3.04784 24.87184,3.30864 25.43664,3.52784 C26.18384,3.81744 26.71664,4.16464 27.27664,4.72464 C27.83664,5.28464 28.18224,5.81744 28.47344,6.56304 C28.69264,7.12784 28.95344,7.97424 29.02384,9.53424 C29.10064,11.22224 29.11664,11.72784 29.11664,15.99984 C29.11664,20.27184 29.10064,20.77744 29.02384,22.46544 M31.90384,9.40304 C31.82544,7.70064 31.55504,6.53744 31.15984,5.51984 C30.75184,4.46704 30.20464,3.57424 29.31504,2.68624 C28.42544,1.79664 27.53264,1.24944 26.48144,0.83984 C25.46224,0.44464 24.29904,0.17424 22.59664,0.09584 C20.89104,0.01904 20.34544,-0.00016 15.99984,-0.00016 C11.65424,-0.00016 11.11024,0.01904 9.40304,0.09584 C7.70064,0.17424 6.53744,0.44464 5.51984,0.83984 C4.46704,1.24944 3.57424,1.79664 2.68624,2.68624 C1.79664,3.57424 1.24944,4.46704 0.83984,5.51984 C0.44464,6.53744 0.17424,7.70064 0.09584,9.40304 C0.01904,11.11024 -0.00016,11.65424 -0.00016,15.99984 C-0.00016,20.34544 0.01904,20.89104 0.09584,22.59664 C0.17424,24.30064 0.44464,25.46224 0.83984,26.48144 C1.24944,27.53264 1.79664,28.42544 2.68624,29.31504 C3.57424,30.20464 4.46704,30.75184 5.51984,31.15984 C6.53744,31.55504 7.70064,31.82544 9.40304,31.90384 C11.11024,31.98224 11.65424,31.99984 15.99984,31.99984 C20.34544,31.99984 20.89104,31.98224 22.59664,31.90384 C24.29904,31.82544 25.46224,31.55504 26.48144,31.15984 C27.53264,30.75184 28.42544,30.20464 29.31504,29.31504 C30.20464,28.42544 30.75184,27.53264 31.15984,26.48144 C31.55504,25.46224 31.82544,24.30064 31.90384,22.59664 C31.98224,20.89104 31.99984,20.34544 31.99984,15.99984 C31.99984,11.65424 31.98224,11.11024 31.90384,9.40304" id="Fill-3"></path>
                <path d="M16,21.33344 C13.0544,21.33344 10.6672,18.94624 10.6672,16.00064 C10.6672,13.05504 13.0544,10.66624 16,10.66624 C18.9456,10.66624 21.3328,13.05504 21.3328,16.00064 C21.3328,18.94624 18.9456,21.33344 16,21.33344 M16,7.78304 C11.4624,7.78304 7.784,11.46304 7.784,16.00064 C7.784,20.53824 11.4624,24.21664 16,24.21664 C20.5376,24.21664 24.216,20.53824 24.216,16.00064 C24.216,11.46304 20.5376,7.78304 16,7.78304" id="Fill-6"></path>
            </g>
        </g>
    </g>
</svg>