<?xml version="1.0" encoding="UTF-8" standalone="no"?>
<svg width="24px" height="24px" viewBox="0 0 24 24" version="1.1" xmlns="http://www.w3.org/2000/svg" xmlns:xlink="http://www.w3.org/1999/xlink">
    <!-- Generator: Sketch 49.3 (51167) - http://www.bohemiancoding.com/sketch -->
    <title>linkedin</title>
    <desc>Created with Sketch.</desc>
    <defs></defs>
    <g id="linkedin" stroke="none" stroke-width="1" fill="none" fill-rule="evenodd">
        <path d="M20.4503275,20.4503275 L16.8925508,20.4503275 L16.8925508,14.8810698 C16.8925508,13.5519687 16.868238,11.8435875 15.0431553,11.8435875 C13.190518,11.8435875 12.9068684,13.291011 12.9068684,14.7854393 L12.9068684,20.4503275 L9.34909165,20.4503275 L9.34909165,8.99736611 L12.7642331,8.99736611 L12.7642331,10.563112 L12.8128588,10.563112 C13.2877693,9.66191666 14.4483015,8.71371649 16.1809955,8.71371649 C19.785777,8.71371649 20.4503275,11.0850274 20.4503275,14.1695144 L20.4503275,20.4503275 Z M5.33585466,7.43324103 C4.1963936,7.43324103 3.2741271,6.50773283 3.2741271,5.36827176 C3.2741271,4.2288107 4.1963936,3.30330249 5.33585466,3.30330249 C6.47531573,3.30330249 7.39920308,4.2288107 7.39920308,5.36827176 C7.39920308,6.50773283 6.47531573,7.43324103 5.33585466,7.43324103 Z M3.55615587,20.4503275 L7.11717431,20.4503275 L7.11717431,8.99736611 L3.55615587,8.99736611 L3.55615587,20.4503275 Z M22.2235429,0 L1.76997366,0 C0.79421895,0 0,0.77476869 0,1.73107314 L0,22.267306 C0,23.2236105 0.79421895,24 1.76997366,24 L22.2235429,24 C23.2025393,24 23.9983791,23.2236105 23.9983791,22.267306 L23.9983791,1.73107314 C23.9983791,0.77476869 23.2025393,0 22.2235429,0 Z" id="Fill-1" fill="#000000"></path>
    </g>
</svg>