<?xml version="1.0" encoding="UTF-8" standalone="no"?>
<svg width="32px" height="32px" viewBox="0 0 32 32" version="1.1" xmlns="http://www.w3.org/2000/svg" xmlns:xlink="http://www.w3.org/1999/xlink">
    <!-- Generator: Sketch 48.2 (47327) - http://www.bohemiancoding.com/sketch -->
    <title>icon-linkedin</title>
    <desc>Created with Sketch.</desc>
    <defs></defs>
    <g id="social-icons" stroke="none" stroke-width="1" fill="none" fill-rule="evenodd">
        <g id="icon-linkedin" fill="#000000">
            <path d="M27.2671034,27.2671034 L22.5234011,27.2671034 L22.5234011,19.8414264 C22.5234011,18.0692916 22.490984,15.79145 20.0575404,15.79145 C17.5873573,15.79145 17.2091578,17.721348 17.2091578,19.7139191 L17.2091578,27.2671034 L12.4654555,27.2671034 L12.4654555,11.9964881 L17.0189775,11.9964881 L17.0189775,14.0841494 L17.0838117,14.0841494 C17.7170257,12.8825555 19.264402,11.6182886 21.5746606,11.6182886 C26.381036,11.6182886 27.2671034,14.7800365 27.2671034,18.8926859 L27.2671034,27.2671034 Z M7.11447288,9.91098805 C5.59519146,9.91098805 4.3655028,8.67697711 4.3655028,7.15769568 C4.3655028,5.63841426 5.59519146,4.40440332 7.11447288,4.40440332 C8.63375431,4.40440332 9.86560411,5.63841426 9.86560411,7.15769568 C9.86560411,8.67697711 8.63375431,9.91098805 7.11447288,9.91098805 Z M4.74154116,27.2671034 L9.48956575,27.2671034 L9.48956575,11.9964881 L4.74154116,11.9964881 L4.74154116,27.2671034 Z M29.6313906,0 L2.35996488,0 C1.0589586,0 0,1.03302492 0,2.30809752 L0,29.6897413 C0,30.9648139 1.0589586,32 2.35996488,32 L29.6313906,32 C30.9367191,32 31.9978389,30.9648139 31.9978389,29.6897413 L31.9978389,2.30809752 C31.9978389,1.03302492 30.9367191,0 29.6313906,0 Z" id="Fill-1"></path>
        </g>
    </g>
</svg>