<?xml version="1.0" encoding="UTF-8" standalone="no"?>
<svg width="10px" height="10px" viewBox="0 0 10 10" version="1.1" xmlns="http://www.w3.org/2000/svg" xmlns:xlink="http://www.w3.org/1999/xlink">
    <!-- Generator: Sketch 43.2 (39069) - http://www.bohemiancoding.com/sketch -->
    <title>icon-search</title>
    <desc>Created with Sketch.</desc>
    <defs></defs>
    <g id="Page-1" stroke="none" stroke-width="1" fill-rule="evenodd">
        <g id="icon-search">
            <path d="M9.8,8.9 L8,7.1 C8.6,6.4 8.9,5.4 8.9,4.4 C8.9,2 6.9,0 4.5,0 C2,0 0,2 0,4.5 C0,7 2,9 4.5,9 C5.5,9 6.5,8.6 7.2,8.1 L8.9,9.8 C9,9.8 9.2,9.9 9.4,9.9 C9.6,9.9 9.7,9.8 9.8,9.7 C10,9.5 10,9.1 9.8,8.9 Z M1.2,4.5 C1.2,2.7 2.7,1.2 4.5,1.2 C6.3,1.2 7.8,2.7 7.8,4.5 C7.8,6.3 6.3,7.7 4.5,7.7 C2.7,7.7 1.2,6.3 1.2,4.5 Z" id="Shape"></path>
        </g>
    </g>
</svg>
