<?xml version="1.0" encoding="UTF-8" standalone="no"?>
<svg width="24px" height="24px" viewBox="0 0 24 24" version="1.1" xmlns="http://www.w3.org/2000/svg" xmlns:xlink="http://www.w3.org/1999/xlink">
    <!-- Generator: Sketch 49.3 (51167) - http://www.bohemiancoding.com/sketch -->
    <title>search</title>
    <desc>Created with Sketch.</desc>
    <defs></defs>
    <g id="search" stroke="none" stroke-width="1" fill="none" fill-rule="evenodd">
        <path d="M17.192966,18.5907438 C15.3759211,20.0955639 13.0435817,21 10.5,21 C4.70101013,21 0,16.2989899 0,10.5 C0,4.70101013 4.70101013,0 10.5,0 C16.2989899,0 21,4.70101013 21,10.5 C21,13.0435817 20.0955639,15.3759211 18.5907438,17.192966 C18.6314127,17.2228127 18.6703353,17.2561218 18.7071068,17.2928932 L23.7202556,22.306042 C24.1107799,22.6965663 24.1107799,23.3297313 23.7202556,23.7202556 C23.3297313,24.1107799 22.6965663,24.1107799 22.306042,23.7202556 L17.2928932,18.7071068 C17.2561218,18.6703353 17.2228127,18.6314127 17.192966,18.5907438 Z M10.5,19 C15.1944204,19 19,15.1944204 19,10.5 C19,5.80557963 15.1944204,2 10.5,2 C5.80557963,2 2,5.80557963 2,10.5 C2,15.1944204 5.80557963,19 10.5,19 Z" id="Combined-Shape" fill="#000000" fill-rule="nonzero"></path>
    </g>
</svg>