<?xml version="1.0" encoding="UTF-8" standalone="no"?>
<svg width="32px" height="32px" viewBox="0 0 32 32" version="1.1" xmlns="http://www.w3.org/2000/svg" xmlns:xlink="http://www.w3.org/1999/xlink">
    <!-- Generator: Sketch 48.2 (47327) - http://www.bohemiancoding.com/sketch -->
    <title>icon-twitter</title>
    <desc>Created with Sketch.</desc>
    <defs></defs>
    <g id="social-icons" stroke="none" stroke-width="1" fill="none" fill-rule="evenodd">
        <g id="icon-twitter" fill="#000000">
            <path d="M31.1062506,2.525 C29.8442256,3.33 28.4400005,3.925 26.9291255,4.24 C25.7382005,2.8575 24.0318005,2 22.1476504,2 C18.5215503,2 15.5886753,5.1675 15.5886753,9.07 C15.5886753,9.63 15.6420003,10.1725 15.7486503,10.68 C10.2917252,10.3825 5.4569251,7.565 2.22187504,3.295 C1.65307503,4.345 1.33312503,5.5525 1.33312503,6.8475 C1.33312503,9.2975 2.48850005,11.4675 4.24822508,12.7275 C3.18172506,12.6925 2.16855004,12.3775 1.27980002,11.8525 L1.27980002,11.94 C1.27980002,15.37 3.53722507,18.2225 6.54120012,18.87 C5.99017511,19.0275 5.4036001,19.115 4.81702509,19.115 C4.39042508,19.115 3.98160007,19.08 3.57277507,18.9925 C4.40820008,21.7925 6.84337513,23.84 9.70515018,23.8925 C7.46550014,25.8 4.63927509,26.92 1.56420003,26.92 C1.03095002,26.92 0.497700009,26.885 0,26.8325 C2.89732505,28.8275 6.34567512,30 10.0606502,30 C22.1298754,30 28.7244005,19.2375 28.7244005,9.8925 L28.7066255,8.9825 C30.0042006,7.985 31.1062506,6.7425 31.9950006,5.3075 C30.8040756,5.885 29.5420506,6.2525 28.2267005,6.4275 C29.5776006,5.5525 30.6085506,4.17 31.1062506,2.525" id="Page-1"></path>
        </g>
    </g>
</svg>