<?xml version="1.0" encoding="UTF-8" standalone="no"?>
<svg width="24px" height="24px" viewBox="0 0 24 24" version="1.1" xmlns="http://www.w3.org/2000/svg" xmlns:xlink="http://www.w3.org/1999/xlink">
    <!-- Generator: Sketch 49.3 (51167) - http://www.bohemiancoding.com/sketch -->
    <title>twitter</title>
    <desc>Created with Sketch.</desc>
    <defs></defs>
    <g id="twitter" stroke="none" stroke-width="1" fill="none" fill-rule="evenodd">
        <path d="M23.3333333,1.39381153 C22.3866667,1.99765586 21.3333333,2.44397559 20.2,2.68026251 C19.3066667,1.64322549 18.0266667,1 16.6133333,1 C13.8933333,1 11.6933333,3.3759962 11.6933333,6.30332855 C11.6933333,6.72339417 11.7333333,7.13033275 11.8133333,7.51101722 C7.72,7.28785736 4.09333333,5.17440217 1.66666667,1.97140176 C1.24,2.75902481 1,3.66479132 1,4.63619309 C1,6.47398021 1.86666667,8.10173451 3.18666667,9.04688217 C2.38666667,9.02062807 1.62666667,8.78434116 0.96,8.39052963 L0.96,8.45616489 C0.96,11.0290669 2.65333333,13.1687761 4.90666667,13.654477 C4.49333333,13.7726205 4.05333333,13.8382557 3.61333333,13.8382557 C3.29333333,13.8382557 2.98666667,13.8120016 2.68,13.7463664 C3.30666667,15.8466945 5.13333333,17.3825595 7.28,17.4219406 C5.6,18.8527892 3.48,19.6929204 1.17333333,19.6929204 C0.773333333,19.6929204 0.373333333,19.6666663 0,19.6272852 C2.17333333,21.123769 4.76,22.0032814 7.54666667,22.0032814 C16.6,22.0032814 21.5466667,13.9301451 21.5466667,6.92029994 L21.5333333,6.23769329 C22.5066667,5.48945139 23.3333333,4.55743078 24,3.48101261 C23.1066667,3.91420529 22.16,4.18987336 21.1733333,4.32114387 C22.1866667,3.66479132 22.96,2.62775431 23.3333333,1.39381153" fill="#000000"></path>
    </g>
</svg>