<?xml version="1.0" encoding="UTF-8" standalone="no"?>
<svg width="24px" height="24px" viewBox="0 0 24 24" version="1.1" xmlns="http://www.w3.org/2000/svg" xmlns:xlink="http://www.w3.org/1999/xlink">
    <!-- Generator: Sketch 49.3 (51167) - http://www.bohemiancoding.com/sketch -->
    <title>vimeo</title>
    <desc>Created with Sketch.</desc>
    <defs></defs>
    <g id="vimeo" stroke="none" stroke-width="1" fill="none" fill-rule="evenodd">
        <path d="M13.759858,7.63876093 C16.5017214,5.98353467 17.9674179,8.30843263 16.5648979,10.9239428 C15.162378,13.539453 13.8862112,15.2578559 13.2165395,15.2578559 C12.5468678,15.2578559 12.0288199,13.5015471 11.270701,10.4311655 C10.4746761,7.2723368 10.4746761,1.56117442 7.18949423,2.2182108 C4.08120674,2.82470592 0,7.70193751 0,7.70193751 L0.972919254,8.97810432 C0.972919254,8.97810432 2.98193434,7.38605463 3.65160603,8.18207948 C4.32127773,8.97810432 6.88624667,18.5430378 7.73281277,20.3119819 C8.47829636,21.8534903 10.5378527,23.9004113 12.7869388,22.4347148 C15.0486601,20.9816536 22.5414019,14.5755489 23.8807453,7.0196305 C25.2200887,-0.52365255 14.8591304,1.05576182 13.759858,7.63876093" id="Fill-1" fill="#000000"></path>
    </g>
</svg>