<?xml version="1.0" encoding="UTF-8" standalone="no"?>
<svg width="32px" height="32px" viewBox="0 0 32 32" version="1.1" xmlns="http://www.w3.org/2000/svg" xmlns:xlink="http://www.w3.org/1999/xlink">
    <!-- Generator: Sketch 48.2 (47327) - http://www.bohemiancoding.com/sketch -->
    <title>icon-vimeo</title>
    <desc>Created with Sketch.</desc>
    <defs></defs>
    <g id="social-icons" stroke="none" stroke-width="1" fill="none" fill-rule="evenodd">
        <g id="icon-vimeo" fill="#000000">
            <path d="M18.3464774,9.51834791 C22.0022952,7.31137956 23.9565572,10.4112435 22.0865306,13.8985904 C20.216504,17.3859374 18.5149482,19.6771412 17.6220526,19.6771412 C16.729157,19.6771412 16.0384265,17.3353961 15.0276013,13.2415541 C13.9662348,9.0297824 13.9662348,1.41489923 9.5859923,2.29094774 C5.44160899,3.0996079 0,9.60258334 0,9.60258334 L1.29722567,11.3041391 C1.29722567,11.3041391 3.97591245,9.18140618 4.86880804,10.2427726 C5.76170363,11.3041391 9.18166222,24.0573837 10.310417,26.4159758 C11.3043951,28.4713204 14.0504703,31.2005484 17.0492517,29.2462864 C20.0648802,27.3088714 30.0552026,18.7673985 31.8409938,8.69284066 C33.626785,-1.36487007 19.8121739,0.741015765 18.3464774,9.51834791" id="Fill-1"></path>
        </g>
    </g>
</svg>