<?xml version="1.0" encoding="UTF-8"?>
<svg width="24px" height="24px" viewBox="0 0 24 24" version="1.1" xmlns="http://www.w3.org/2000/svg" xmlns:xlink="http://www.w3.org/1999/xlink">
    <!-- Generator: Sketch 51.3 (57544) - http://www.bohemiancoding.com/sketch -->
    <title>volume-up</title>
    <desc>Created with Sketch.</desc>
    <defs></defs>
    <g id="volume-up" stroke="none" stroke-width="1" fill="none" fill-rule="evenodd">
        <path d="M23.1347656,12.0097467 C23.1347656,16.1931396 21.3174312,20.1505715 18.145458,22.8499684 C17.9949426,22.9680322 17.8549206,23.0218168 17.7044052,23.0218168 C17.5112601,23.0218168 17.3069658,22.9467151 17.1669438,22.7745388 C16.9196919,22.4839707 16.9626494,22.0648443 17.2315441,21.8172384 C20.1133078,19.3546249 21.7584841,15.7736852 21.7584841,12.0097467 C21.7584841,8.24580814 20.1133078,4.66486843 17.2315441,2.20225499 C16.9626494,1.95464903 16.9196919,1.53552265 17.1669438,1.24495459 C17.4033743,0.943891984 17.8549206,0.922246959 18.145458,1.16952496 C21.3174312,3.86892186 23.1347656,7.8263538 23.1347656,12.0097467 Z M16.2743447,20.7851643 C16.1562934,20.903228 15.9841352,20.9570126 15.8332919,20.9570126 C15.6401468,20.9570126 15.4466738,20.881911 15.2961584,20.7097346 C15.0485785,20.4194945 15.1023575,20.0000402 15.3928949,19.7524342 C17.6506263,17.8063498 18.9304992,14.9885612 18.9304992,12.0097467 C18.9304992,9.0309322 17.6506263,6.21314358 15.3712521,4.26705912 C15.1023575,4.01945316 15.0485785,3.59999883 15.2961584,3.30975873 C15.5434103,3.00869612 15.9841352,2.9870511 16.2743447,3.2343291 C18.8337628,5.41752496 20.3067808,8.62230038 20.3067808,12.0097467 C20.3067808,15.397193 18.8550776,18.6019684 16.2743447,20.7851643 Z M14.6294964,18.0319828 C14.5107892,18.1503745 14.338959,18.2041591 14.1884436,18.2041591 C13.9949706,18.2041591 13.7903483,18.1287295 13.672297,17.9568811 C13.4250451,17.666313 13.4463599,17.2471867 13.7477186,16.9995807 C15.199094,15.7415456 16.0270928,13.9240195 16.0270928,12.0097467 C16.0270928,10.0954738 15.199094,8.27794772 13.7477186,7.01991267 C13.4463599,6.77230671 13.4250451,6.35318033 13.672297,6.06261228 C13.9195489,5.76154967 14.338959,5.7402326 14.6294964,5.9875106 C16.4035453,7.4823291 17.4033743,9.69766454 17.4033743,12.0097467 C17.4033743,14.3218288 16.4035453,16.5371643 14.6294964,18.0319828 Z M3.43367681,8.13390272 L11,2.02181677 L11,21.0218168 L3.43367681,15.0012661 L0,15.0012661 L0,8.13390272 L3.43367681,8.13390272 Z" id="Fill-1" fill="#000000"></path>
    </g>
</svg>