<?xml version="1.0" encoding="UTF-8" standalone="no"?>
<svg width="29px" height="20px" viewBox="0 0 29 20" version="1.1" xmlns="http://www.w3.org/2000/svg" xmlns:xlink="http://www.w3.org/1999/xlink">
    <!-- Generator: Sketch 43.2 (39069) - http://www.bohemiancoding.com/sketch -->
    <title>icon-youtube</title>
    <desc>Created with Sketch.</desc>
    <defs></defs>
    <g id="Page-1" stroke="none" stroke-width="1" fill-rule="evenodd">
        <g id="social-youtube">
            <path d="M28.2,4.3 C28.2,4.3 27.9,2.3 27.1,1.5 C26,0.4 24.8,0.4 24.3,0.3 C20.2,0 14.2,0 14.2,0 L14.2,0 C14.2,0 8.2,0 4.3,0.3 C3.7,0.4 2.5,0.4 1.4,1.5 C0.6,2.4 0.3,4.3 0.3,4.3 C0.3,4.3 0,6.6 0,8.9 L0,11.1 C0,13.4 0.3,15.7 0.3,15.7 C0.3,15.7 0.6,17.7 1.4,18.5 C2.5,19.6 3.9,19.6 4.5,19.7 C6.8,19.9 14.2,20 14.2,20 C14.2,20 20.2,20 24.2,19.7 C24.8,19.6 26,19.6 27,18.5 C27.9,17.6 28.1,15.7 28.1,15.7 C28.1,15.7 28.4,13.4 28.4,11.1 L28.4,8.9 C28.4,6.6 28.2,4.3 28.2,4.3 Z M11.3,13.7 L11.3,5.7 L19,9.7 L11.3,13.7 Z" id="Shape"></path>
        </g>
    </g>
</svg>
