<?xml version="1.0" encoding="UTF-8" standalone="no"?>
<svg width="24px" height="24px" viewBox="0 0 24 24" version="1.1" xmlns="http://www.w3.org/2000/svg" xmlns:xlink="http://www.w3.org/1999/xlink">
    <!-- Generator: Sketch 49.3 (51167) - http://www.bohemiancoding.com/sketch -->
    <title>youtube</title>
    <desc>Created with Sketch.</desc>
    <defs></defs>
    <g id="youtube" stroke="none" stroke-width="1" fill="none" fill-rule="evenodd">
        <path d="M23.4984955,6.65457742 C24.0000409,8.54843226 24.0000409,12.4999726 24.0000409,12.4999726 C24.0000409,12.4999726 24.0000409,16.4513758 23.4984955,18.3455048 C23.2224955,19.3903194 22.4093591,20.2131742 21.3765409,20.4925774 C19.5050864,20.9999726 12.0000409,20.9999726 12.0000409,20.9999726 C12.0000409,20.9999726 4.49499545,20.9999726 2.62340455,20.4925774 C1.59072273,20.2131742 0.77745,19.3903194 0.50145,18.3455048 C4.09090909e-05,16.4513758 4.09090909e-05,12.4999726 4.09090909e-05,12.4999726 C4.09090909e-05,12.4999726 4.09090909e-05,8.54843226 0.50145,6.65457742 C0.77745,5.60962581 1.59072273,4.78677097 2.62340455,4.50750484 C4.49499545,3.99997258 12.0000409,3.99997258 12.0000409,3.99997258 C12.0000409,3.99997258 19.5050864,3.99997258 21.3765409,4.50750484 C22.4093591,4.78677097 23.2224955,5.60962581 23.4984955,6.65457742 Z M9.6,15.56 L15.7714286,12.1601299 L9.6,8.76 L9.6,15.56 Z" id="Combined-Shape" fill="#000000"></path>
    </g>
</svg>